<?xml version="1.0" encoding="UTF-8"?><svg version="1.1" width="130px" height="48px" viewBox="0 0 130.0 48.0" xmlns="http://www.w3.org/2000/svg" xmlns:xlink="http://www.w3.org/1999/xlink"><defs><clipPath id="i0"><path d="M93.4543151,13.0246756 C93.8304698,14.037713 93.7677771,15.3040099 92.5139283,17.583344 C91.0720024,20.1792524 88.1881501,25.1178099 86.6835315,28.3468668 C85.8685299,30.0563674 85.8685299,31.3226642 86.871609,31.2593493 C88.0000729,31.1960346 89.3793066,29.4865339 90.445078,27.6504035 L90.445078,27.5870887 C91.1973872,25.3710692 93.1408527,21.8254383 94.2693167,20.2425673 C94.5200864,19.8626782 94.7081636,19.7993634 94.9589337,20.0526228 C95.4604732,20.5591415 95.6485504,21.8254383 94.9589337,23.3449945 C94.3320093,24.6746061 93.0781605,26.7006809 92.4512361,28.220237 C91.761619,29.9297377 91.8243116,31.1327197 92.7646981,31.0694048 C93.7050849,31.00609 94.7708562,30.0563674 95.6485504,28.7267558 L95.6485504,28.663441 C96.2127822,26.7639958 98.5324026,22.5219015 100.413176,19.7360486 C100.601253,19.4194744 100.852023,19.4194744 101.0401,19.7360486 C101.478947,20.4958267 101.416255,21.508864 101.102793,22.5852163 C102.482026,21.1289751 104.488184,19.4827893 105.491263,19.6094189 C106.494342,19.7993634 107.434729,21.2556047 106.68242,22.8384758 C106.055495,24.1680874 104.613569,26.3841067 103.923953,27.9669777 C103.171643,29.7397932 103.35972,31.1327197 104.425492,31.0694048 C105.553956,31.0694048 106.870497,29.3599042 107.936268,27.460459 C108.124346,26.5107365 108.563193,25.497699 109.25281,24.4846616 C111.57243,20.9390305 114.017435,19.6094189 115.522054,19.6094189 C116.71321,19.6094189 117.277442,20.4958267 117.277442,21.5721789 C117.653597,21.0023454 117.967059,20.4325118 118.280521,19.9259931 C118.531291,19.4827893 118.844753,19.4827893 119.03283,19.7360486 C119.471677,20.2425673 119.722447,21.5721789 118.970138,23.0284202 C118.092443,24.8645505 116.211671,28.5368113 114.957822,31.4492939 C116.838595,30.4995713 118.280521,29.2965893 119.346292,28.0936074 C119.220908,27.0172552 119.471677,26.0042177 120.161294,25.4343841 C120.537449,25.1178099 120.788219,25.2444396 120.788219,25.7509583 C120.850911,25.9409029 120.850911,26.1941623 120.850911,26.4474216 C122.10476,24.7379209 123.421301,22.7751609 124.298995,21.2556047 C124.42438,20.0526228 124.737842,19.4827893 125.364767,18.9129557 C126.054383,18.3431221 126.744,18.2164924 126.99477,18.4697518 C127.308232,18.786326 127.120155,19.1029002 126.744,19.7993634 C126.618615,19.989308 126.555923,20.1792524 126.430538,20.3691969 C126.179769,23.1550499 126.744,25.497699 126.681308,27.5870887 C126.618615,28.7900706 126.430538,30.0563674 125.364767,30.7528306 C127.370925,29.9930526 128.624774,28.220237 129.377083,26.5740512 C129.502468,26.257477 129.81593,26.3207919 129.941315,26.5740512 C130.066699,26.8906254 130.004007,27.6504035 129.627853,28.7267558 C128.499389,30.7528306 126.493231,31.9558126 124.361688,32.0191275 C122.606299,32.0824422 120.913603,31.6392384 119.910524,29.7397932 C119.910524,29.6764784 119.910524,29.6131635 119.847832,29.5498487 C118.593983,31.00609 116.71321,32.0191275 114.581667,32.7789054 C112.951664,36.8310552 110.820121,41.6429829 108.375116,42.5927058 C107.748191,42.8459649 107.183959,42.7193352 106.619727,41.9595573 C105.992803,41.0731494 105.428571,39.9967971 105.992803,38.2239819 C106.870497,35.5014435 109.440887,33.6653133 112.387432,32.5256462 C112.700894,31.8291829 112.951664,31.1327197 113.265126,30.4362564 C112.387432,31.3226642 111.384353,31.9558126 110.255889,31.9558126 C109.00204,31.9558126 108.187038,31.1327197 107.936268,29.9297377 C106.995882,31.1960346 105.553956,32.1457571 104.174722,32.1457571 C101.667024,32.1457571 101.0401,30.2463119 101.917794,27.6504035 C102.920873,24.6746061 105.553956,21.508864 104.989724,21.2556047 C104.676262,21.1289751 102.983566,22.0153827 101.0401,24.1047725 C99.4240283,25.7931683 98.2537694,28.2819886 97.0890145,30.8152769 L96.6516294,31.765868 C96.5262445,32.0191275 96.3381674,32.1457571 96.0873973,31.8924977 C95.8366279,31.6392384 95.6485504,31.2593493 95.5858581,30.8161455 C94.7081636,31.6392384 93.5797,32.0824422 92.5766209,32.0824422 C91.1973872,32.0824422 90.445078,31.3859791 90.2570005,30.2463119 C89.316614,31.3859791 88.0000729,32.209072 86.8089164,32.1457571 C85.1789129,32.0824422 84.3639114,31.1327197 84.3639114,29.7397932 C83.4235246,30.9427751 82.0442912,32.0824422 80.6650575,32.0824422 C79.4112087,32.0824422 78.6588994,31.3226642 78.3454371,30.1829971 C77.4050506,31.3859791 76.0258169,32.2723868 74.7719681,32.209072 C73.1419646,32.1457571 72.3269628,31.1960346 72.3269628,29.8031081 C71.3865763,31.00609 70.0073426,32.1457571 68.6281089,32.1457571 C67.2488752,32.1457571 66.4338737,31.1960346 66.2457965,29.8031081 C64.9292551,31.1960346 63.0484819,32.209072 61.1050164,32.209072 C57.2807776,32.2723868 55.9642362,28.5368113 57.9077017,24.6112912 C59.8511675,20.6857711 62.923097,19.1029002 64.4277155,19.989308 C65.1800248,20.4325118 65.6815644,20.8757157 66.1831039,21.5721789 C66.747336,22.331957 66.4965663,24.1680874 65.2427174,25.6876436 C63.7380989,27.5237739 61.7319408,28.2835519 59.6630904,26.5740512 C58.6600113,29.3599042 59.4123203,31.2593493 60.9796315,31.3226642 C63.1111745,31.3859791 64.9919477,29.6764784 66.3084888,27.9036629 C66.5592585,26.8906254 66.9981055,25.7509583 67.7504147,24.6746061 C70.1327275,21.1289751 72.5150402,19.7993634 74.0196588,19.7993634 C75.2735076,19.7993634 75.8377394,20.6857711 75.8377394,21.8254383 C76.2873956,20.9695963 76.7847606,20.0366623 77.2916673,19.1023992 L77.6730401,18.4026364 C78.8826091,16.193429 80.0921781,14.0835617 80.7904421,13.0879904 C81.0412122,12.6447865 81.3546742,12.7081014 81.4800591,13.0879904 C81.8562137,14.1010279 81.7935211,15.3673246 80.5396726,17.6466589 C79.0977463,20.2425673 76.2138941,25.1811248 74.7092755,28.4101816 C73.8942739,30.1196822 73.8942739,31.3859791 74.897353,31.3226642 C75.900432,31.2593493 77.2169731,29.8664229 78.2200522,28.1569223 C78.4081297,27.0172552 78.9096692,25.8142732 79.7246708,24.6112912 C82.1069835,21.0656602 84.4892962,19.7360486 85.9939148,19.7360486 C87.2477633,19.7360486 87.8119954,20.6224563 87.8119954,21.7621234 C89.4419989,18.6596963 91.6989268,14.5442317 92.7646981,13.0246756 C93.0154679,12.5814717 93.3289302,12.6447865 93.4543151,13.0246756 Z M20.9464611,7.10542736e-15 C32.4854823,0.0630566665 41.7668692,9.52156785 41.704473,21.1240081 C41.704473,21.9543788 41.656289,22.7734452 41.5625881,23.5785491 C42.1321457,23.0958487 42.625968,22.4842158 42.990259,21.7159287 C43.4920669,20.5858693 43.3666149,18.5768748 43.3666149,18.5768748 C43.3666149,18.5768748 43.3791415,18.5944275 43.4006295,18.6285685 L43.4544976,18.7186823 C43.6774612,19.1094924 44.2230662,20.2816225 43.868423,21.9042719 C43.6083147,23.0943827 42.8639362,24.5268412 41.2180114,25.6404401 C39.1519353,35.0688511 30.7551964,42.1135176 20.7583248,42.0591615 C9.21930334,41.9957892 -0.0620834165,32.5372782 0.000312767554,20.9348378 C0.0633408186,9.33239761 9.40743958,7.10542736e-15 20.8837489,7.10542736e-15 L20.9464611,7.10542736e-15 Z M111.8232,33.6653133 C107.936268,35.9446476 106.619727,40.1234268 107.121267,40.81989 C107.497421,41.3897238 109.879734,38.2239819 111.8232,33.6653133 Z M27.3606639,5.05239979 C25.3973497,4.2476979 23.2532258,3.79844698 21.009173,3.78340439 C11.53965,3.78340439 3.88877714,11.41327 3.82606514,20.9348378 C3.76335304,30.4564057 11.3515138,38.1493279 20.8210368,38.2123847 L20.9464611,38.2123847 C28.1391113,38.2123847 34.3284912,33.6541741 36.8259552,27.2411754 L36.7461163,27.2544583 L36.4040284,27.3034444 C31.1977704,27.9312553 27.1205802,24.8549825 26.4305942,24.1016096 C25.7406081,23.3482366 25.1133481,22.5320826 24.6115401,21.6531475 C24.3606361,21.1508989 24.047006,20.5230882 23.858828,19.9580586 C23.7961021,20.0208396 23.419746,18.702437 23.419746,18.6396559 C22.604308,15.0611345 23.6079241,10.8548025 25.4269781,7.77852968 C25.9646296,6.86371972 26.5483654,6.04115951 27.1781857,5.27131342 L27.404,5 L27.3606639,5.05239979 Z M36.3241959,-3.55271368e-15 C36.8888715,-3.55271368e-15 37.4535467,0.126186293 38.0182222,0.252372586 C38.5828974,0.441652027 39.147573,0.630931465 39.6495064,0.88330405 C40.1514401,1.13567664 40.6533738,1.45114237 41.0925656,1.82970124 C41.5944994,2.20826013 42.0336916,2.58681901 42.4101419,3.02847104 C42.786592,3.47012304 43.1630423,3.97486823 43.5394927,4.47961341 C43.8532012,4.98435856 44.1669097,5.48910375 44.4806183,6.05694207 C44.7943268,6.6247804 45.0452935,7.1926187 45.2962605,7.76045702 C45.5472272,8.32829535 45.7354524,8.89613365 45.9236775,9.46397197 C46.1119027,10.0318103 46.3001279,10.5996486 46.4256113,11.1674869 C47.1157701,14.0066785 47.554962,16.9720564 47.6177035,20.0005274 C47.6177035,21.2623904 47.554962,23.4706505 47.4922202,24.7325134 C48.4960876,23.2182779 52.3860736,14.6376099 52.7625239,14.5745169 C53.1389743,14.5114237 53.7663914,21.8302287 53.0762325,26.8776804 C52.9507491,27.571705 56.8407351,21.7040424 59.475887,14.0697717 C62.1110386,6.43550097 59.475887,0.504745174 59.475887,0.504745174 C59.475887,0.504745174 66.0637664,3.28084361 61.7345885,13.6281196 C57.4681522,23.7861163 51.5704314,32.3667841 51.2567228,33.0608087 C50.9430143,33.6917401 50.1901139,33.9441127 50.6920476,32.6822498 C51.6331732,27.8871708 52.3860736,20.2529001 51.8213984,19.5588755 C51.2784412,20.7600719 50.4197336,22.4602268 49.5081118,24.1935294 L49.0491082,25.0607864 C47.4612902,28.0426636 45.8464569,30.8925885 45.5472272,31.2311075 C45.0452935,31.7989459 44.982552,31.5465732 45.1080353,31.1049213 C45.2335187,30.6632692 45.4844857,28.6442885 45.609969,27.3193324 C46.2373861,20.1267138 45.4217438,14.1328648 43.2257841,9.40087883 C42.9120756,8.70685421 42.5983668,8.07592274 42.2219167,7.50808445 C41.8454664,6.94024612 41.4062745,6.37240779 40.9670823,5.80456947 C40.5278904,5.23673117 39.9632152,4.73198599 39.3985397,4.29033398 C38.8338644,3.84868194 38.2064471,3.53321619 37.57903,3.28084361 C36.8261296,2.96537788 36.0732292,2.8391916 35.257587,2.77609845 C34.1909777,2.71300531 33.1871103,2.8391916 32.1832431,3.15465733 C31.5558259,2.77609845 30.9284089,2.39753956 30.3009917,2.08207383 C30.8029254,1.70351496 31.3048591,1.38804922 31.8695345,1.13567664 C32.6224351,0.757117759 33.3753355,0.441652027 34.1909777,0.252372586 C34.8811366,0.0630931462 35.5712955,-3.55271368e-15 36.1987126,-3.55271368e-15 L36.3241959,-3.55271368e-15 Z M74.3958135,21.0656602 C73.455427,21.0656602 71.2611914,22.9651054 69.631188,25.6243287 C68.0638771,28.220237 67.6877225,30.8161455 68.8788787,30.8794604 C70.0700352,30.8794604 71.7000387,29.1066448 73.0792724,26.3841067 C74.8346605,23.0284202 75.2735076,21.0656602 74.3958135,21.0656602 Z M86.3700695,21.0656602 C85.4296827,21.0656602 83.2354474,22.9651054 81.605444,25.6243287 C80.0381331,28.220237 79.6619785,30.8161455 80.8531347,30.8794604 C82.0442912,30.8794604 83.6742944,29.1066448 85.0535281,26.3841067 C86.8089164,23.0284202 87.2477633,21.0656602 86.3700695,21.0656602 Z M116.023593,21.0656602 C115.083207,21.0023454 112.888971,22.9651054 111.258968,25.5610138 C109.628964,28.220237 109.315502,30.8794604 110.506658,30.8794604 C111.697815,30.9427751 113.202433,29.0433299 114.707052,26.3207919 C116.650518,23.0284202 116.901287,21.1289751 116.023593,21.0656602 Z M124.236303,23.2816796 C123.358609,24.8645505 122.230145,26.5107365 121.101681,28.1569223 C121.540528,29.8664229 122.418222,31.1327197 123.421301,30.8161455 C124.800535,30.3729417 124.361688,25.6243287 124.236303,23.2816796 Z M60.1019373,25.1178099 C59.9765524,25.2444396 59.9138598,25.4343841 59.8511675,25.6243287 C61.3557861,26.5740512 62.5469423,25.2444396 63.4246365,24.1047725 C64.3650233,22.8384758 65.05464,21.2556047 64.615793,20.9390305 C63.9888686,20.4325118 61.481171,22.2686421 60.1019373,25.1178099 Z M28.7715208,5.70752318 L28.6514867,5.84269297 C27.2401516,7.49552436 26.2698588,9.60702854 25.7406081,11.6081754 C24.9251701,14.9983535 25.5524301,17.3212534 25.8660602,18.2001883 C26.2424162,19.0163423 26.6187722,19.8324963 27.1833062,20.5230882 C28.0614702,21.7159287 29.1905383,22.7204259 30.4450584,23.5365799 C31.7623044,24.3527338 33.1422766,24.9177636 34.5849746,25.1688878 C35.2647253,25.2822791 36.3209777,25.3465183 37.4758131,25.2077282 C37.811868,23.8795977 37.9946669,22.4904385 38.0041448,21.0609514 C38.0482271,14.3679479 34.2809365,8.57849957 28.7715208,5.70752318 Z"></path></clipPath><clipPath id="i1"><path d="M0.416901047,0.280841697 C0.887125734,-0.307370545 1.7100191,0.0847709496 2.06268778,0.934410778 C2.47413462,1.71869364 2.23902228,2.56833347 1.8863536,3.02583193 C1.53368492,3.41797343 0.769569725,3.35261646 0.299344712,2.56833347 C-0.170879974,1.71869364 -0.0533236395,0.803696969 0.416901047,0.280841697 Z"></path></clipPath><clipPath id="i2"><path d="M4.39848582,0 C5.65519596,0 6.72339955,0.382422763 7.54026117,1.14726862 C8.3571228,1.97585171 8.79697131,2.99564585 8.79697131,4.2066517 C8.79697131,5.48139446 8.3571228,6.4374517 7.54026117,7.26603446 C6.72339955,8.09461755 5.65519596,8.47704031 4.33565009,8.47704031 C3.07893994,8.47704031 2.07357177,8.09461755 1.25671014,7.26603446 C0.439848517,6.50118894 0,5.48139446 0,4.27038861 C0,3.05938309 0.439848517,2.03958862 1.25671014,1.21100585 C2.07357177,0.382422763 3.14177535,0 4.39848582,0 Z M4.52415664,1.08353138 C3.5816242,1.08353138 2.82759798,1.40221723 2.19924291,1.97585171 C1.63372325,2.61322309 1.31954555,3.37806861 1.31954555,4.27038861 C1.31954555,5.16270894 1.57088784,5.92755446 2.19924291,6.50118894 C2.76476257,7.07482308 3.5816242,7.39350893 4.46132123,7.39350893 C5.34101826,7.39350893 6.09504448,7.07482308 6.72339955,6.50118894 C7.28891921,5.86381723 7.60309658,5.16270894 7.72876773,4.2066517 C7.72876773,3.3143317 7.41459003,2.54948585 6.78623496,1.97585171 C6.15787989,1.40221723 5.403854,1.08353138 4.52415664,1.08353138 Z"></path></clipPath><clipPath id="i3"><path d="M4.42542292,0 L8.14534383,8.1510003 L6.92674907,8.1510003 L5.83642726,5.72436665 L5.32333483,4.72882467 L3.9764668,1.80441987 L2.75787204,4.72882467 L2.30891625,5.72436665 L1.21859476,8.1510003 L0,8.1510003 L3.59164764,0 L4.42542292,0 Z"></path></clipPath><clipPath id="i4"><path d="M2.46043291,0 C3.15440125,0 3.7852815,0.188378746 4.35307399,0.565135912 L4.35307399,1.88378681 C3.7852815,1.25585787 3.15440125,1.0046861 2.46043291,1.0046861 C2.08190502,1.0046861 1.7664649,1.06747913 1.51411254,1.25585787 C1.2617605,1.44423662 1.13558432,1.69540806 1.13558432,1.94657951 C1.13558432,2.19775128 1.19867241,2.44892272 1.38793668,2.63730147 C1.57720063,2.88847291 1.89264075,3.07685166 2.27116897,3.3280231 L3.15440125,3.83036632 C4.16380972,4.39550223 4.66851411,5.14901721 4.54233793,6.27928904 C4.54233793,6.90721797 4.35307399,7.40956119 3.91145768,7.84911138 C3.46984138,8.28866157 2.90204922,8.47704031 2.20808088,8.47704031 C1.38793668,8.47704031 0.693968341,8.22586854 0,7.72352566 L0,6.21649601 C0.630880251,7.0328037 1.38793668,7.40956119 2.20808088,7.40956119 C2.58660909,7.40956119 2.90204922,7.28397547 3.15440125,7.09559672 C3.40675361,6.90721797 3.53292947,6.65604653 3.53292947,6.34208206 C3.53292947,5.83973885 3.15440125,5.33739563 2.46043291,4.89784544 L1.57720063,4.33270953 C1.00940847,4.01874506 0.630880251,3.64198757 0.378528216,3.3280231 C0.126175854,3.01405863 0,2.63730147 0,2.19775128 C0,1.56982234 0.252352035,1.0046861 0.693968341,0.627928936 C1.13558432,0.188378746 1.7664649,0 2.46043291,0 Z"></path></clipPath><clipPath id="i5"><path d="M1.30325501,0 L1.30325501,8.1510003 L0,8.1510003 L0,0 L1.30325501,0 Z"></path></clipPath><clipPath id="i6"><path d="M2.46754971,0 C3.16352516,0 3.79623025,0.188378746 4.36566468,0.565135912 L4.36566468,1.88378681 C3.79623025,1.25585787 3.16352516,1.0046861 2.46754971,1.0046861 C2.08792666,1.0046861 1.77157427,1.06747913 1.51849191,1.25585787 C1.26541019,1.44423662 1.13886917,1.69540806 1.13886917,1.94657951 C1.13886917,2.19775128 1.20213952,2.44892272 1.39195121,2.63730147 C1.58176258,2.88847291 1.89811496,3.07685166 2.27773802,3.3280231 L3.16352516,3.83036632 C4.17585331,4.39550223 4.61874672,5.14901721 4.55547637,6.27928904 C4.55547637,6.90721797 4.36566468,7.40956119 3.92277127,7.84911138 C3.47987787,8.28866157 2.91044312,8.47704031 2.21446767,8.47704031 C1.39195121,8.47704031 0.695975443,8.22586854 0,7.72352566 L0,6.21649601 C0.632705096,7.0328037 1.39195121,7.40956119 2.21446767,7.40956119 C2.59409073,7.40956119 2.91044312,7.28397547 3.16352516,7.09559672 C3.41660719,6.90721797 3.54314821,6.65604653 3.54314821,6.34208206 C3.54314821,5.83973885 3.16352516,5.33739563 2.46754971,4.89784544 L1.58176258,4.33270953 C1.01232815,4.01874506 0.632705096,3.64198757 0.379623058,3.3280231 C0.126541019,3.01405863 0,2.63730147 0,2.19775128 C0,1.56982234 0.253082039,1.0046861 0.695975443,0.627928936 C1.13886917,0.188378746 1.77157427,0 2.46754971,0 Z"></path></clipPath><clipPath id="i7"><path d="M1.06516033,0 L1.06516033,3.25059447 C1.56641229,2.93190861 2.06766425,2.74069723 2.56891621,2.74069723 C3.2581374,2.74069723 3.8220461,2.99564585 4.26064132,3.56928 C4.69923686,4.07917723 4.88720643,4.78028585 4.88720643,5.60886894 C4.88720643,6.50118894 4.63658045,7.20229755 4.13532849,7.71219479 C3.63407654,8.2220917 2.94485501,8.47704031 2.06766425,8.47704031 C1.69172544,8.47704031 1.31578631,8.4133034 0.939847503,8.34956617 C0.501251958,8.2220917 0.250625979,8.15835446 0,8.03088031 L0,0 L1.06516033,0 Z M2.1929774,3.7604917 C1.81703827,3.7604917 1.44109946,3.88796585 1.00250392,4.27038861 L1.00250392,7.26603446 C1.37844305,7.39350893 1.75438185,7.45724584 2.13032066,7.45724584 C2.63157262,7.45724584 3.00751175,7.26603446 3.32079414,6.94734893 C3.63407654,6.56492617 3.8220461,6.11876585 3.75938936,5.60886894 C3.75938936,5.03523447 3.63407654,4.58907447 3.32079414,4.27038861 C3.00751175,3.95170308 2.63157262,3.7604917 2.1929774,3.7604917 Z"></path></clipPath><clipPath id="i8"><path d="M1.17913544,0 L2.66856968,3.00960004 L4.0338844,0 L5.21301985,0 L1.42737448,8.1510003 L0.24823904,8.1510003 L2.04797208,4.26360013 L0,0 L1.17913544,0 Z"></path></clipPath></defs><g transform=""><g clip-path="url(#i0)"><polygon points="0,-3.55271368e-15 130,-3.55271368e-15 130,42.7112416 0,42.7112416 0,-3.55271368e-15" stroke="none" fill="#FFFFFF"></polygon></g></g><g transform="translate(95.13792846681017 16.628040624468134)"><g clip-path="url(#i1)"><polygon points="7.66053887e-15,-1.11022302e-16 2.28069637,-1.11022302e-16 2.28069637,3.26040012 7.66053887e-15,3.26040012 7.66053887e-15,-1.11022302e-16" stroke="none" fill="#FFFFFF"></polygon></g></g><g transform="translate(40.40121801470491 36.842521366342346)"><g transform="translate(14.661618966621067 0.0)"><g clip-path="url(#i2)"><polygon points="0,0 8.79697131,0 8.79697131,8.47704031 0,8.47704031 0,0" stroke="none" fill="#FFFFFF"></polygon></g></g><g transform="translate(23.45859028138566 0.0)"><g clip-path="url(#i3)"><polygon points="0,0 8.14534383,0 8.14534383,8.1510003 0,8.1510003 0,0" stroke="none" fill="#FFFFFF"></polygon></g></g><g transform="translate(31.603934115504018 0.0)"><g clip-path="url(#i4)"><polygon points="0,0 4.56139248,0 4.56139248,8.47704031 0,8.47704031 0,0" stroke="none" fill="#FFFFFF"></polygon></g></g><g transform="translate(38.120209248006674 0.0)"><g clip-path="url(#i5)"><polygon points="0,0 1.30325501,0 1.30325501,8.1510003 0,8.1510003 0,0" stroke="none" fill="#FFFFFF"></polygon></g></g><g transform="translate(40.40090543026865 0.0)"><g clip-path="url(#i6)"><polygon points="0,0 4.56139259,0 4.56139259,8.47704031 0,8.47704031 0,0" stroke="none" fill="#FFFFFF"></polygon></g></g><g transform=""><g clip-path="url(#i7)"><polygon points="0,0 4.88720643,0 4.88720643,8.47704031 0,8.47704031 0,0" stroke="none" fill="#FFFFFF"></polygon></g></g><g transform="translate(5.213020171210127 2.9343601088237286)"><g clip-path="url(#i8)"><polygon points="0,0 5.21301985,0 5.21301985,8.1510003 0,8.1510003 0,0" stroke="none" fill="#FFFFFF"></polygon></g></g></g></svg>