<?xml version="1.0" encoding="UTF-8"?><svg version="1.1" width="126px" height="46px" viewBox="0 0 126.0 46.0" xmlns="http://www.w3.org/2000/svg" xmlns:xlink="http://www.w3.org/1999/xlink"><defs><clipPath id="i0"><path d="M4.20966638,0 C5.42489703,0 6.43451199,0.384375439 7.24354676,1.15228707 C8.05006378,1.92103795 8.45793816,2.88617278 8.45793816,4.04349534 C8.45793816,5.20417489 8.04586755,6.16343499 7.23263654,6.92463264 C6.4152093,7.6824733 5.38713088,8.06181325 4.14672281,8.06181325 C2.96338357,8.06181325 1.97391055,7.6824733 1.18501773,6.92463264 C0.396124907,6.16343499 0,5.21256736 0,4.06867277 C0,2.89204752 0.400321145,1.92103795 1.19592795,1.15228707 C1.99069551,0.384375439 2.99527498,0 4.20966638,0 Z M4.25330726,1.0683623 C3.35531224,1.0683623 2.61257804,1.34867103 2.03517563,1.91096698 C1.45693398,2.47410217 1.16823278,3.19249819 1.16823278,4.06867277 C1.16823278,4.91547368 1.45693398,5.62128099 2.03937187,6.18273769 C2.61761353,6.74839063 3.34691976,7.0278601 4.2205766,7.0278601 C5.09675118,7.0278601 5.82941441,6.73999815 6.4152093,6.16847048 C7.00016493,5.59190732 7.29474087,4.87938603 7.29474087,4.02419264 C7.29474087,3.1891412 7.00016493,2.48669089 6.4152093,1.92103795 C5.82941441,1.35202802 5.1093399,1.0683623 4.25330726,1.0683623 Z"></path></clipPath><clipPath id="i1"><path d="M4.17190024,0 L7.69086577,7.90907017 L6.54361419,7.90907017 L5.49791158,5.57847935 L5.03212911,4.57557837 L3.76234737,1.73052872 L2.58823986,4.57557837 L2.14008159,5.57847935 L1.1581618,7.90907017 L0,7.90907017 L3.37965042,0 L4.17190024,0 Z"></path></clipPath><clipPath id="i2"><path d="M2.31632361,0 C2.97429379,0 3.57771288,0.18463449 4.12490237,0.549707233 L4.12490237,1.8287207 C3.55841018,1.28153121 2.95079486,1.01129346 2.29702091,1.01129346 C1.92859118,1.01129346 1.62814051,1.09689672 1.38979416,1.267264 C1.15396557,1.43679203 1.03814938,1.65499643 1.03814938,1.9201987 C1.03814938,2.1543488 1.12123491,2.37507095 1.29831617,2.58236512 C1.46952269,2.78630231 1.74983142,3.00198897 2.1367246,3.22690734 L2.99779273,3.73716994 C3.95537433,4.30869761 4.43626326,5.03800385 4.43626326,5.9259279 C4.43626326,6.55452441 4.2222551,7.0664655 3.80179201,7.46091191 C3.37965042,7.85284058 2.83246093,8.05090303 2.15350956,8.05090303 C1.3780447,8.05090303 0.671398147,7.81255669 0.0310521643,7.33418551 L0.0310521643,5.9066252 C0.642024478,6.67621533 1.34615328,7.06059076 2.14511708,7.06059076 C2.49592261,7.06059076 2.78798081,6.96239879 3.0238094,6.76769332 C3.25795951,6.56963087 3.37797193,6.32457055 3.37797193,6.03083386 C3.37797193,5.54994493 3.03136263,5.09591194 2.34150104,4.66789562 L1.48462915,4.14756205 C0.947510635,3.82193395 0.570688425,3.4971451 0.34073456,3.18158797 C0.114976933,2.86435234 0,2.50011885 0,2.08469125 C0,1.46700495 0.218204398,0.965134836 0.642024478,0.577402406 C1.07507628,0.190509224 1.6314975,0 2.31632361,0 Z"></path></clipPath><clipPath id="i3"><path d="M1.12627039,0 L1.12627039,7.8620723 L0,7.8620723 L0,0 L1.12627039,0 Z"></path></clipPath><clipPath id="i4"><path d="M2.32135909,0 C2.97765078,0 3.57687363,0.18463449 4.12658086,0.549707233 L4.12658086,1.8287207 C3.55924943,1.28153121 2.9516341,1.01129346 2.29618166,1.01129346 C1.93026967,1.01129346 1.62730126,1.09689672 1.39231191,1.267264 C1.15732256,1.43679203 1.03479239,1.65499643 1.03479239,1.9201987 C1.03479239,2.1543488 1.1245919,2.37507095 1.29579842,2.58236512 C1.47120119,2.78630231 1.75150992,3.00198897 2.1384031,3.22690734 L2.99527498,3.73716994 C3.95453509,4.30869761 4.43542401,5.03800385 4.43542401,5.9259279 C4.43542401,6.55452441 4.22141585,7.0664655 3.80430975,7.46091191 C3.38216817,7.85284058 2.83162169,8.05090303 2.1560273,8.05090303 C1.38140169,8.05090303 0.674755138,7.81255669 0.0360876504,7.33418551 L0.0360876504,5.9066252 C0.645381469,6.67621533 1.34531404,7.06059076 2.14427783,7.06059076 C2.49760111,7.06059076 2.79385554,6.96239879 3.02800564,6.76769332 C3.2613165,6.56963087 3.37713268,6.32457055 3.37713268,6.03083386 C3.37713268,5.54994493 3.03220188,5.09591194 2.34317953,4.66789562 L1.48630765,4.14756205 C0.950867626,3.82193395 0.567331434,3.4971451 0.343252303,3.18158797 C0.117494676,2.86435234 0,2.50011885 0,2.08469125 C0,1.46700495 0.215686655,0.965134836 0.647899212,0.577402406 C1.07591553,0.190509224 1.63233675,0 2.32135909,0 Z"></path></clipPath><clipPath id="i5"><path d="M1.0314354,0 L1.0314354,3.08843148 C1.47875442,2.76448187 1.95628635,2.59747158 2.46487045,2.59747158 C3.12703687,2.59747158 3.66583388,2.84504965 4.08797547,3.35363374 C4.51179555,3.84962913 4.71825048,4.48913586 4.71825048,5.27467169 C4.71825048,6.11727637 4.46983316,6.78951376 3.9688023,7.28718764 C3.46525369,7.78318302 2.7913378,8.03327883 1.94957237,8.03327883 C1.61135555,8.03327883 1.25971077,7.99383419 0.888763297,7.91998039 C0.510262592,7.85032283 0.213168912,7.75716634 0,7.64638565 L0,0 L1.0314354,0 Z M2.20554291,3.56596341 C1.82200672,3.56596341 1.42923881,3.73381295 1.0314354,4.0779045 L1.0314354,6.90616919 C1.38140169,7.01443214 1.74563518,7.06562625 2.11322567,7.06562625 C2.57481189,7.06562625 2.95079486,6.89945521 3.23865681,6.57214861 C3.53071501,6.24819901 3.6767441,5.83612839 3.6767441,5.31831257 C3.6767441,4.80217525 3.54414297,4.37919441 3.26467349,4.05356631 C2.99527498,3.72877746 2.64027321,3.56596341 2.20554291,3.56596341 Z"></path></clipPath><clipPath id="i6"><path d="M1.17830375,0 L2.59411459,2.95247335 L3.94194637,0 L5.10094742,0 L1.40070438,7.89480296 L0.243381828,7.89480296 L2.02258692,4.1114744 L0,0 L1.17830375,0 Z"></path></clipPath><clipPath id="i7"><path d="M0.858908798,4.60902126 C2.73294888,0.88779703 5.6761905,-0.610260086 7.11885727,0.224791359 C7.83725329,0.657003917 8.35758685,1.09005572 8.81833383,1.72536622 C9.33950664,2.41690631 9.10871353,4.17513021 7.89516138,5.6463314 C6.48270753,7.37686012 4.55075936,8.1279868 2.53236868,6.48222209 C1.60919623,9.13760176 2.30073632,10.9537337 3.83152409,11.0410155 C6.22337999,11.1551532 8.32821318,8.84890056 9.56862126,6.94548681 C9.71213261,6.71385445 9.94376498,6.71385445 10.0579027,6.97402123 C10.1753973,7.2039751 10.0889548,8.01133137 9.56862126,8.7616188 C8.35758685,10.5206819 6.13693748,11.8483718 3.91460961,11.8769062 C0.25297197,11.9331358 -1.01429203,8.33024549 0.858908798,4.60902126 Z M7.37734556,1.37791768 C6.77224798,0.88779703 4.37703509,2.61832575 3.01997158,5.35763019 C2.93604682,5.53051522 2.8496043,5.70423949 2.79337471,5.84942934 C4.20331082,6.74238887 5.3874893,5.50282004 6.22337999,4.40676257 C7.14739169,3.19572816 7.78102369,1.69431405 7.37734556,1.37791768 Z"></path></clipPath><clipPath id="i8"><path d="M14.0538536,0.292167991 C14.3400371,-0.112349392 14.6018823,-0.0821364756 14.7453937,0.292167991 C15.1499111,1.24303562 15.0626293,2.48260445 13.8532734,4.64702422 C12.4668362,7.12532263 9.69899736,11.8846962 8.25549134,14.9420756 C7.47666949,16.6146962 7.44897432,17.7971962 8.43005486,17.7401273 C9.61255485,17.6830585 11.171877,15.7494318 12.1789743,13.7595756 C12.3208071,13.4994088 12.5255836,13.4994088 12.6397212,13.7310412 C12.7563767,13.9903687 12.7865896,14.7423346 12.4097674,15.5186387 C11.6317848,17.1039776 9.84250871,18.6330869 8.25549134,18.5474836 C6.69868689,18.4610411 5.91902579,17.596616 5.91902579,16.2395525 C4.99669259,17.393518 3.70089416,18.4610411 2.34718765,18.4610411 C-0.337565693,18.4610411 -0.857060009,14.7994035 1.50877921,11.3375068 C3.78481893,7.99226549 6.09275006,6.69394932 7.53625608,6.69394932 C8.71791682,6.69394932 9.29531922,7.58774811 9.26594555,8.65443191 C10.8252678,5.68433436 13.0140257,1.76336918 14.0538536,0.292167991 Z M7.99700306,8.16431127 C7.10236502,8.13577684 4.99669259,9.95358733 3.40967522,12.4914723 C1.85454926,14.9722885 1.53731363,17.4791213 2.66274478,17.5093342 C3.8141926,17.5378686 5.3718363,15.8358743 6.72889981,13.2115468 C8.3990027,10.0106562 8.83625074,8.19368493 7.99700306,8.16431127 Z"></path></clipPath><clipPath id="i9"><path d="M14.0537436,0.292167991 C14.3416056,-0.112349392 14.6017724,-0.0821364756 14.7444445,0.292167991 C15.1498011,1.24303562 15.0616801,2.48260445 13.8531634,4.64702422 C12.4684047,7.12532263 9.69888739,11.8846962 8.25873836,14.9420756 C7.47907726,16.6146962 7.44886435,17.7971962 8.42994489,17.7401273 C9.61412337,17.6830585 11.1700886,15.7494318 12.1788643,13.7595756 C12.3223756,13.4994088 12.5237951,13.4994088 12.6396113,13.7310412 C12.753749,13.9903687 12.7839619,14.7423346 12.4096574,15.5186387 C11.6308356,17.1039776 9.84239874,18.6330869 8.25873836,18.5474836 C6.70109466,18.4610411 5.92059431,17.596616 5.92059431,16.2395525 C4.99910036,17.393518 3.70078419,18.4610411 2.34372068,18.4610411 C-0.33599717,18.4610411 -0.857169981,14.7994035 1.50782999,11.3375068 C3.7872267,7.99226549 6.09431858,6.69394932 7.5361461,6.69394932 C8.71948534,6.69394932 9.29520925,7.58774811 9.26919257,8.65443191 C10.8234793,5.68433436 13.018112,1.76336918 14.0537436,0.292167991 Z M7.99605384,8.16431127 C7.1047728,8.13577684 4.99910036,9.95358733 3.41292223,12.4914723 C1.85527853,14.9722885 1.53636441,17.4791213 2.6626348,17.5093342 C3.81492187,17.5378686 5.37340482,15.8358743 6.73046833,13.2115468 C8.40224971,10.0106562 8.83446227,8.19368493 7.99605384,8.16431127 Z"></path></clipPath><clipPath id="i10"><path d="M4.73951874,0.151282929 C5.16837431,0.612029907 5.40000667,1.85243798 4.70846658,3.2942655 C4.10252975,4.56404725 2.89065609,6.52452984 2.28388002,7.96719661 C1.59317917,9.64065649 1.65192651,10.7644091 2.57509896,10.7073403 C3.87005814,10.6502715 5.45791476,8.74601846 6.32233987,6.75700145 C6.46585123,6.49599542 6.66894917,6.52452984 6.78728309,6.75700145 C7.01471921,7.21774843 6.93079444,7.82368525 6.58418515,8.54459901 C5.72059928,10.3313573 3.90027106,11.5440702 2.28388002,11.5440702 C0.093443563,11.5440702 -0.453745927,9.69772533 0.353610345,7.33272536 C1.07452411,5.22621367 2.97542011,1.82474281 4.04546091,0.325846447 C4.30310995,-0.0224413419 4.50788638,-0.108883853 4.73951874,0.151282929 Z"></path></clipPath><clipPath id="i11"><path d="M2.0985721,0.861682427 C2.47371582,1.61196986 2.27229637,2.38995246 1.90050965,2.79279135 C1.52033045,3.19730873 0.71465267,3.11170547 0.280761618,2.36057879 C-0.178306865,1.58343543 -0.0347955112,0.717331825 0.42511222,0.22637193 C0.888376941,-0.26290947 1.72678538,0.0828605759 2.0985721,0.861682427 Z"></path></clipPath><clipPath id="i12"><path d="M5.48449231,0.226109278 C5.91754411,0.947023039 5.88817044,1.92810358 5.56925632,2.96709221 C6.86757249,1.58233354 8.83141207,-0.00384458697 9.7806012,0.139666767 C10.7323081,0.284856616 11.6261069,1.69814972 10.9051931,3.19788533 C10.3009348,4.46682782 8.88932016,6.60019544 8.22463599,8.09993105 C7.47350932,9.77339093 7.64891208,11.1287759 8.68370448,11.0717071 C9.86788296,11.0129598 11.2794976,9.11038526 12.378912,7.09199458 C12.5190664,6.83098855 12.7238428,6.83098855 12.8656757,7.06262091 C13.0679344,7.37901729 13.0108655,8.04202296 12.6088659,8.87959215 C11.8292048,10.4926262 10.0130728,11.9638274 8.33877368,11.9638274 C5.88817044,11.9638274 5.30908954,10.1762298 6.14833722,7.66771849 C7.09752635,4.84029304 9.63708985,1.78375298 9.11675628,1.55295987 C8.83141207,1.43882218 7.15711294,2.24617845 5.30908954,4.26456913 C3.60877373,6.11007479 2.34067048,8.87959215 1.09942316,11.5903622 C0.98612472,11.8496897 0.81240045,11.9638274 0.552233668,11.7053391 C-0.0234902433,11.1287759 -0.198053762,10.1762298 0.264371712,8.73524154 C0.841774119,6.91827031 3.06158424,2.91002337 4.87771623,0.226109278 C5.07829643,-0.0902870984 5.30908954,-0.0600741818 5.48449231,0.226109278 Z"></path></clipPath><clipPath id="i13"><path d="M12.1964516,0.340939753 C12.4297625,-0.0618991349 12.7167852,-0.0921120515 12.9215616,0.168054731 C13.3529349,0.687549047 13.583728,1.92627863 12.8628143,3.33957173 C11.9958714,5.0709397 10.1814179,8.56137082 8.96870501,11.3585833 C11.3907738,10.1467097 12.976952,8.56137082 14.1334353,7.03142229 C14.3046418,6.80062918 14.5648086,6.80062918 14.6218774,7.09016963 C14.678107,7.34781867 14.5345957,7.98396841 14.0461535,8.76195101 C12.9215616,10.5210142 10.8435843,11.6741405 8.44837145,12.5410833 C6.86471107,16.4058189 4.81358973,20.9897898 2.48215967,21.9129622 C1.90307876,22.1437553 1.32735485,22.0573128 0.805342794,21.3078646 C0.201923709,20.441761 -0.315052864,19.4329853 0.230458131,17.730991 C1.06718807,15.1360372 3.54968272,13.3778133 6.40396409,12.2800773 C6.6909868,11.6456061 6.95031434,10.954066 7.23901554,10.290221 C6.40396409,11.1277902 5.39350988,11.7320486 4.32514758,11.7320486 C1.67228565,11.7320486 1.15614833,8.12747976 3.48757839,4.66642232 C5.73760143,1.3203418 8.07406698,0.0237041289 9.54610742,0.0237041289 C10.700073,0.0237041289 11.2774754,0.917502912 11.2472625,1.92627863 C11.5938718,1.35055472 11.9111074,0.830221153 12.1964516,0.340939753 Z M5.9113257,13.4625773 C2.1624063,15.653853 0.894303049,19.6050311 1.3827452,20.2982497 C1.75872816,20.8445999 4.03812487,17.8468072 5.9113257,13.4625773 Z M9.97915923,1.49406607 C9.08368195,1.43699723 6.97884876,3.28334213 5.39350988,5.79185346 C3.83418769,8.27266961 3.5194698,10.8105546 4.67007838,10.8382498 C5.79634877,10.8676235 7.26838921,9.05065222 8.73623341,6.51192797 C10.5565616,3.33957173 10.8142107,1.55197416 9.97915923,1.49406607 Z"></path></clipPath><clipPath id="i14"><path d="M5.84277091,0.563352843 C6.4797599,-0.0123710679 7.14360482,-0.128187248 7.40209311,0.131140286 C7.69163356,0.419841489 7.54728295,0.736237866 7.17046074,1.40008278 C7.05548381,1.57296781 6.9707198,1.74585283 6.85406437,1.94727227 C6.65348417,4.60097345 7.20067366,6.85015724 7.11423115,8.84085275 C7.05548381,9.96544465 6.85406437,11.1748006 5.81591498,11.8696976 C7.7487024,11.1479446 8.95889756,9.41741591 9.68148981,7.85977221 C9.82500117,7.54169733 10.1120239,7.62897909 10.2286793,7.85977221 C10.342817,8.11993899 10.3134433,8.86938717 9.82500117,9.7640252 C8.72978294,11.7530422 6.76762186,12.8490997 4.72069676,12.9363814 C3.04723687,12.992611 1.43168508,12.5612377 0.452283036,10.7719617 C-0.240096304,9.47448475 -0.15449304,7.571071 0.826587503,6.76371473 C1.1731968,6.47501353 1.40315066,6.58999046 1.43168508,7.05157669 C1.46105875,7.28320905 1.46105875,7.51316291 1.49043242,7.74479527 C2.67209316,6.12924348 3.97040933,4.2552034 4.80797851,2.78484146 C4.95148987,1.65941032 5.24103032,1.11138158 5.84277091,0.563352843 Z M4.74839193,4.62950787 C3.91334048,6.1577779 2.84581743,7.74479527 1.74892071,9.30243898 C2.18197251,10.9742204 3.01702396,12.1575596 3.97040933,11.8696976 C5.29809916,11.464341 4.86420811,6.937439 4.74839193,4.62950787 Z"></path></clipPath><clipPath id="i15"><path d="M20.2193734,0 C31.3293342,0.0537118518 40.2958565,9.11506909 40.2432165,20.2384579 C40.1934683,31.3643644 31.138825,40.3367614 20.0271857,40.2832895 C8.91302859,40.2326947 -0.0509759165,31.1688197 3.55271368e-15,20.0454309 C0.053930044,8.95393354 9.04982597,0 20.1203422,0 Z M20.2025884,3.64800891 C11.1026258,3.60372955 3.68955101,10.9555393 3.64570906,20.0630551 C3.60143,29.173928 10.9423295,36.5953953 20.0439706,36.6373576 L20.1270561,36.6373576 C29.1875741,36.6373576 36.5561688,29.3073684 36.5999816,20.2216729 C36.6409328,11.1116393 29.2991941,3.69268981 20.2025884,3.64800891 Z"></path></clipPath><clipPath id="i16"><path d="M0,1.23645881 C5.6900993,-1.60691234 11.6789708,1.34388252 11.6789708,1.34388252 C22.4473578,6.06381149 19.2347177,24.0908517 19.2347177,24.0908517 C20.1956563,22.6574167 23.9294692,14.4462174 24.2903457,14.3740421 C24.6453475,14.3043845 25.2823365,21.2986747 24.6092598,26.1604365 C24.5152641,26.8435841 28.2742545,21.2239817 30.7886405,13.8948316 C33.3055443,6.56819935 30.7886405,0.913348455 30.7886405,0.913348455 C30.7886405,0.913348455 37.1157288,3.54103295 32.9732023,13.2578426 C28.8323542,22.9746523 23.1816995,31.2462775 22.8753741,31.8832665 C22.5690487,32.5236125 21.8397425,32.7409776 22.3122389,31.5475674 C23.2563926,26.998845 23.989895,19.649553 23.4141711,18.9932613 C21.9169533,22.3401811 17.8407273,29.6424752 17.3631953,30.1938609 C16.8881811,30.7418896 16.8042564,30.5018648 16.955321,30.1023829 C17.1063855,29.7003833 17.3548029,27.7306689 17.4622266,26.4709582 C18.039629,19.6193401 17.1433124,13.3224647 14.9797319,8.75360032 C11.5228707,1.45466321 4.03845985,3.01482466 4.03845985,3.01482466 C4.03845985,3.01482466 2.99695348,2.46679592 2.23323809,2.09249145 C1.46868345,1.71818698 0,1.23645881 0,1.23645881 Z"></path></clipPath><clipPath id="i17"><path d="M4.43471258,0 C5.8412917,0.151903831 7.45012951,0.681469119 7.45012951,0.681469119 L7.4093396,0.701842581 C6.85734077,0.983900415 0.911215109,4.22261662 2.37855576,12.1565027 C3.91773601,20.4742865 11.3408818,21.3219267 11.3408818,21.3219267 C22.4651098,22.9458709 23.7550335,14.0162756 23.7550335,14.0162756 C24.2258515,18.1134828 21.6300584,20.2367794 21.6300584,20.2367794 C14.9127199,25.7934383 2.66893546,22.543032 0.473463517,13.9743132 C-1.4278208,6.55661627 2.93118082,1.50932498 4.13656286,0.287182003 L4.24962203,0.174458066 C4.3674993,0.0590051509 4.43471258,0 4.43471258,0 Z"></path></clipPath></defs><g transform="translate(52.90211201904073 35.284653422126226)"><g clip-path="url(#i0)"><polygon points="0,0 8.45793816,0 8.45793816,8.06181325 0,8.06181325 0,0" stroke="none" fill="#191B1F"></polygon></g></g><g transform="translate(61.46957199963451 35.34910764424598)"><g clip-path="url(#i1)"><polygon points="0,0 7.69086577,0 7.69086577,7.90907017 0,7.90907017 0,0" stroke="none" fill="#191B1F"></polygon></g></g><g transform="translate(69.68907989050352 35.29615111539499)"><g clip-path="url(#i2)"><polygon points="0,0 4.43626326,0 4.43626326,8.05090303 0,8.05090303 0,0" stroke="none" fill="#191B1F"></polygon></g></g><g transform="translate(75.42903049943462 35.39535019162619)"><g clip-path="url(#i3)"><polygon points="0,0 1.12627039,0 1.12627039,7.8620723 0,7.8620723 0,0" stroke="none" fill="#191B1F"></polygon></g></g><g transform="translate(77.96347457989663 35.29615111539499)"><g clip-path="url(#i4)"><polygon points="0,0 4.43542401,0 4.43542401,8.05090303 0,8.05090303 0,0" stroke="none" fill="#191B1F"></polygon></g></g><g transform="translate(38.96229191504267 35.39568589069971)"><g clip-path="url(#i5)"><polygon points="0,0 4.71825048,0 4.71825048,8.03327883 0,8.03327883 0,0" stroke="none" fill="#191B1F"></polygon></g></g><g transform="translate(44.034872765775425 38.105197038012925)"><g clip-path="url(#i6)"><polygon points="0,0 5.10094742,0 5.10094742,7.89480296 0,7.89480296 0,0" stroke="none" fill="#191B1F"></polygon></g></g><g transform="translate(54.975115004855766 18.597766969585898)"><g clip-path="url(#i7)"><polygon points="2.66453526e-15,-4.4408921e-15 10.1041962,-4.4408921e-15 10.1041962,11.8775559 2.66453526e-15,11.8775559 2.66453526e-15,-4.4408921e-15" stroke="none" fill="#191B1F"></polygon></g></g><g transform="translate(63.81436637789539 11.955304358560548)"><g clip-path="url(#i8)"><polygon points="1.57651669e-14,3.49720253e-15 14.9626813,3.49720253e-15 14.9626813,18.5509169 1.57651669e-14,18.5509169 1.57651669e-14,3.49720253e-15" stroke="none" fill="#191B1F"></polygon></g></g><g transform="translate(75.37956120791986 11.955304358560548)"><g clip-path="url(#i9)"><polygon points="-1.17683641e-14,3.49720253e-15 14.9621374,3.49720253e-15 14.9621374,18.5509169 -1.17683641e-14,18.5509169 -1.17683641e-14,3.49720253e-15" stroke="none" fill="#191B1F"></polygon></g></g><g transform="translate(86.91703712409156 18.901732814404063)"><g clip-path="url(#i10)"><polygon points="4.88498131e-15,5.88418203e-15 6.91436175,5.88418203e-15 6.91436175,11.5440702 4.88498131e-15,11.5440702 4.88498131e-15,5.88418203e-15" stroke="none" fill="#191B1F"></polygon></g></g><g transform="translate(91.80381056568037 15.913866876850994)"><g clip-path="url(#i11)"><polygon points="1.02140518e-14,3.27515792e-15 2.29879173,3.27515792e-15 2.29879173,3.03205659 1.02140518e-14,3.03205659 1.02140518e-14,3.27515792e-15" stroke="none" fill="#191B1F"></polygon></g></g><g transform="translate(92.05309170363381 18.566991456971593)"><g clip-path="url(#i12)"><polygon points="-1.87627691e-14,-2.08166817e-15 12.9793457,-2.08166817e-15 12.9793457,11.9638274 -1.87627691e-14,11.9638274 -1.87627691e-14,-2.08166817e-15" stroke="none" fill="#191B1F"></polygon></g></g><g transform="translate(101.95026368971091 18.655007147188215)"><g clip-path="url(#i13)"><polygon points="-3.5249581e-15,0 14.6333728,0 14.6333728,22.0258413 -3.5249581e-15,22.0258413 -3.5249581e-15,0" stroke="none" fill="#191B1F"></polygon></g></g><g transform="translate(115.11133412571277 17.538291725389172)"><g clip-path="url(#i14)"><polygon points="2.3869795e-14,8.8817842e-16 10.2841355,8.8817842e-16 10.2841355,12.9410895 2.3869795e-14,12.9410895 2.3869795e-14,8.8817842e-16" stroke="none" fill="#191B1F"></polygon></g></g><g transform="translate(-3.552713678800501e-15 0.23397745469627296)"><g clip-path="url(#i15)"><polygon points="-0.000216340896,0 40.2434471,0 40.2434471,40.2835272 -0.000216340896,40.2835272 -0.000216340896,0" stroke="none" fill="#AFB5BC"></polygon></g></g><g transform="translate(26.341517395753442 0.0)"><g clip-path="url(#i16)"><polygon points="0,1.99840144e-15 34.3797081,1.99840144e-15 34.3797081,32.4037956 0,32.4037956 0,1.99840144e-15" stroke="none" fill="#191B1F"></polygon></g></g><g transform="translate(17.915510675954245 4.054652535428284)"><g clip-path="url(#i17)"><polygon points="-2.48689958e-14,0 23.8121274,0 23.8121274,22.9874851 -2.48689958e-14,22.9874851 -2.48689958e-14,0" stroke="none" fill="#191B1F"></polygon></g></g></svg>